<svg width="188" height="26" viewBox="0 0 188 26" fill="none" xmlns="http://www.w3.org/2000/svg">
<path d="M2.86328 11.3281C2.86328 8.96094 2.89844 7.14453 2.96875 5.87891H2.95703L1.16406 5.63281C1.0625 5.34375 0.984375 5.02734 0.929688 4.68359C0.875 4.33203 0.847656 3.99219 0.847656 3.66406C0.847656 3.41406 0.867188 3.14062 0.90625 2.84375C1.85938 2.52344 3.10547 2.27734 4.64453 2.10547C6.18359 1.92578 7.65234 1.83594 9.05078 1.83594C10.2461 1.83594 11.2734 1.92969 12.1328 2.11719C12.9922 2.29687 13.7109 2.71094 14.2891 3.35938C14.875 4 15.168 4.95703 15.168 6.23047C15.168 6.73047 15.0312 7.29688 14.7578 7.92969C14.4844 8.55469 14.125 9.14453 13.6797 9.69922C13.2422 10.2461 12.7852 10.668 12.3086 10.9648C12.9023 11.0664 13.4531 11.2734 13.9609 11.5859C14.4766 11.8906 14.8945 12.3086 15.2148 12.8398C15.5352 13.3633 15.6953 13.9844 15.6953 14.7031C15.6953 15.6641 15.5117 16.4922 15.1445 17.1875C14.7773 17.8828 14.2539 18.457 13.5742 18.9102C12.2461 19.793 10.3711 20.2344 7.94922 20.2344C6.99609 20.2344 6.14844 20.2148 5.40625 20.1758C4.67188 20.1445 3.99219 20.082 3.36719 19.9883C3.03125 18.1758 2.86328 15.2891 2.86328 11.3281ZM9.53125 10.5898C9.73438 10.0195 9.90625 9.29688 10.0469 8.42188C10.1953 7.53906 10.2852 6.82031 10.3164 6.26562C10.2773 6.19531 10.0781 6.13672 9.71875 6.08984C9.35938 6.03516 8.89453 6.00781 8.32422 6.00781C8.14453 6.00781 7.84375 6.01953 7.42188 6.04297C7.35938 7.80078 7.26562 9.37891 7.14062 10.7773L8.32422 10.6836L9.53125 10.5898ZM8.94531 17.1641C9.60156 17.1641 10.0703 17.1367 10.3516 17.082C10.5469 16.9648 10.7188 16.7539 10.8672 16.4492C11.0234 16.1445 11.1406 15.8125 11.2188 15.4531C11.2969 15.0859 11.3359 14.7578 11.3359 14.4688C11.1953 14.0625 10.4961 13.8594 9.23828 13.8594C8.70703 13.8594 8.09766 13.8945 7.41016 13.9648C7.22266 13.9883 7.08203 14 6.98828 14L6.95312 15.7109C6.94531 15.8828 6.9375 16.082 6.92969 16.3086C6.92188 16.5352 6.91797 16.7891 6.91797 17.0703C7.43359 17.1328 7.99609 17.1641 8.60547 17.1641H8.94531ZM18.332 16.8594C18.332 16.5234 18.3398 15.6992 18.3555 14.3867C18.3789 11.8086 18.3906 10.3984 18.3906 10.1562L17.3125 9.98047C17.1641 9.53516 17.0586 9.11719 16.9961 8.72656C16.9336 8.33594 16.9023 7.94141 16.9023 7.54297C16.9023 7.37891 16.9062 7.25391 16.9141 7.16797C17.0469 7.05078 17.2539 6.91016 17.5352 6.74609C17.8164 6.58203 18.1484 6.4375 18.5312 6.3125C18.9141 6.17969 19.3047 6.11328 19.7031 6.11328C20.6328 6.11328 21.3047 6.32031 21.7188 6.73438C22.1406 7.14844 22.3516 7.75391 22.3516 8.55078C22.3516 9.03516 22.2891 9.65625 22.1641 10.4141C22.0469 11.1641 21.9258 11.6992 21.8008 12.0195L22.2227 12.0898L22.9258 9.44141C23.2383 8.24609 23.6289 7.39453 24.0977 6.88672C24.5664 6.37109 25.0938 6.11328 25.6797 6.11328C26.0625 6.11328 26.4414 6.17188 26.8164 6.28906C27.1992 6.40625 27.4922 6.55078 27.6953 6.72266C27.9141 7.20703 28.0234 7.85156 28.0234 8.65625C28.0234 9.21875 27.9688 9.77734 27.8594 10.332C27.75 10.8789 27.6094 11.3203 27.4375 11.6562L24.9766 11.3281C24.4766 11.8594 23.9453 12.5977 23.3828 13.543C22.8203 14.4805 22.3711 15.3438 22.0352 16.1328L22.0234 16.7422L24.2969 16.2031C24.6797 16.7891 24.9023 17.4844 24.9648 18.2891C24.9648 18.3359 24.7891 18.5273 24.4375 18.8633C24.0859 19.1992 23.6211 19.5117 23.043 19.8008C22.4727 20.082 21.8164 20.2227 21.0742 20.2227C20.3086 20.2227 19.668 20.0195 19.1523 19.6133C18.6445 19.1992 18.375 18.5039 18.3438 17.5273C18.3359 17.4102 18.332 17.1875 18.332 16.8594ZM29.418 3.18359C29.418 2.49609 29.6406 1.9375 30.0859 1.50781C30.5391 1.07812 31.2578 0.863281 32.2422 0.863281C33.2266 0.863281 33.9414 1.07812 34.3867 1.50781C34.8398 1.9375 35.0664 2.49609 35.0664 3.18359C35.0664 3.57422 34.9297 3.93359 34.6562 4.26172C34.3906 4.58984 34.0391 4.85156 33.6016 5.04688C33.1641 5.23438 32.7109 5.32812 32.2422 5.32812C31.7344 5.32812 31.2617 5.21875 30.8242 5C30.3945 4.77344 30.0508 4.49219 29.793 4.15625C29.543 3.82031 29.418 3.49609 29.418 3.18359ZM28.8438 9.88672C28.7422 9.50391 28.6719 9.15625 28.6328 8.84375C28.5938 8.52344 28.5742 8.19141 28.5742 7.84766L28.5859 7.51953C28.75 7.30859 29.0039 7.09766 29.3477 6.88672C29.6992 6.66797 30.1055 6.48438 30.5664 6.33594C31.0352 6.1875 31.5195 6.11328 32.0195 6.11328C33.1133 6.11328 33.8906 6.35938 34.3516 6.85156C34.8125 7.34375 35.043 8.10938 35.043 9.14844C35.043 9.77344 34.9531 10.5898 34.7734 11.5977C34.6016 12.6055 34.3906 13.5859 34.1406 14.5391C33.8984 15.4844 33.6875 16.1602 33.5078 16.5664L33.5312 16.5898L35.2656 15.957C35.5781 16.2227 35.8125 16.5156 35.9688 16.8359C36.1328 17.1562 36.2383 17.5273 36.2852 17.9492C36.2852 18.0039 36.1133 18.2305 35.7695 18.6289C35.4258 19.0195 34.9688 19.3867 34.3984 19.7305C33.8359 20.0664 33.1836 20.2344 32.4414 20.2344C31.6914 20.2344 31.082 20.0312 30.6133 19.625C30.1523 19.2188 29.9219 18.5234 29.9219 17.5391C29.9219 16.3906 29.9531 15.1719 30.0156 13.8828C30.0781 12.5938 30.1758 11.3438 30.3086 10.1328L28.8438 9.88672Z" fill="#2095D4"/>
<path d="M44.1367 21.8633C44.6602 21.8633 45.1133 21.8047 45.4961 21.6875C45.6133 21.5703 45.6953 21.4336 45.7422 21.2773C45.7891 21.1289 45.8125 20.9883 45.8125 20.8555C45.8125 20.7148 45.8008 20.6094 45.7773 20.5391C45.7539 20.4766 45.7148 20.418 45.6602 20.3633C45.332 20.3086 44.9453 20.2695 44.5 20.2461C44.0625 20.2305 43.8008 20.2188 43.7148 20.2109C42.6289 20.1641 41.7461 20.0859 41.0664 19.9766C40.3867 19.8594 39.8047 19.6094 39.3203 19.2266C38.8359 18.8359 38.5938 18.25 38.5938 17.4688C38.5938 17.0469 38.7305 16.6523 39.0039 16.2852C39.2773 15.9102 39.6328 15.582 40.0703 15.3008C39.1797 14.9336 38.4648 14.3828 37.9258 13.6484C37.3945 12.9062 37.1289 11.9492 37.1289 10.7773C37.1289 9.61328 37.4258 8.67969 38.0195 7.97656C38.6211 7.26562 39.3594 6.76562 40.2344 6.47656C41.1094 6.1875 42 6.04297 42.9062 6.04297C43.4766 6.04297 44.0352 6.09766 44.582 6.20703C45.1289 6.31641 45.6367 6.47266 46.1055 6.67578L45.6016 3.69922C46.0781 3.41016 46.6719 3.26562 47.3828 3.26562C47.8984 3.26562 48.3789 3.35156 48.8242 3.52344C49.2695 3.69531 49.6094 3.94141 49.8438 4.26172C49.8594 4.33984 49.8672 4.46484 49.8672 4.63672C49.8672 5.27734 49.75 5.99219 49.5156 6.78125C49.2891 7.5625 48.8945 8.19141 48.332 8.66797C48.6133 9.23047 48.7539 9.83594 48.7539 10.4844C48.7539 11.4375 48.5703 12.3164 48.2031 13.1211C47.8438 13.9258 47.2422 14.582 46.3984 15.0898C45.5547 15.5898 44.457 15.8398 43.1055 15.8398C42.7148 15.8398 42.3086 15.8164 41.8867 15.7695C41.8633 16.1602 41.957 16.5508 42.168 16.9414C43.2227 16.7383 44.0742 16.6328 44.7227 16.625L45.5195 16.6133C46.5977 16.6133 47.4141 16.6797 47.9688 16.8125C48.5781 16.9609 49.0312 17.2969 49.3281 17.8203C49.6328 18.3438 49.7852 18.9805 49.7852 19.7305C49.7852 20.9023 49.4258 21.8867 48.707 22.6836C47.9961 23.4883 47.0703 24.0859 45.9297 24.4766C44.7969 24.8672 43.5938 25.0625 42.3203 25.0625C41.1406 25.0625 40.0898 24.8633 39.168 24.4648C38.2461 24.0664 37.6641 23.3359 37.4219 22.2734C37.6797 21.375 38.1719 20.6953 38.8984 20.2344C39.875 20.8203 40.8086 21.2383 41.6992 21.4883C42.5977 21.7383 43.4102 21.8633 44.1367 21.8633ZM43.4219 12.9453C43.9844 12.9453 44.3125 12.9102 44.4062 12.8398C44.6172 12.418 44.7227 11.9844 44.7227 11.5391C44.7227 11.0781 44.6172 10.6445 44.4062 10.2383C44.3047 10.1523 44.0781 10.0859 43.7266 10.0391C43.3828 9.99219 43.0078 9.96875 42.6016 9.96875C42.0938 9.96875 41.7539 10 41.582 10.0625C41.3398 10.4922 41.2188 10.9258 41.2188 11.3633C41.2188 11.8086 41.332 12.2305 41.5586 12.6289C41.7305 12.7383 41.9883 12.8203 42.332 12.875C42.6836 12.9219 43.0469 12.9453 43.4219 12.9453ZM51.5781 12.3828C51.5781 8.75781 51.6484 6.26562 51.7891 4.90625L50.4648 4.67188C50.2773 3.95313 50.1836 3.17969 50.1836 2.35156C50.3008 2.20312 50.5195 2.01953 50.8398 1.80078C51.1602 1.58203 51.5312 1.39062 51.9531 1.22656C52.3828 1.0625 52.8086 0.980469 53.2305 0.980469C54.1914 0.980469 54.9062 1.22656 55.375 1.71875C55.8438 2.21094 56.0781 2.96484 56.0781 3.98047C56.0781 4.42578 56.0391 5.14453 55.9609 6.13672C55.8828 7.12109 55.7695 8.17969 55.6211 9.3125C55.4727 10.4375 55.3008 11.4414 55.1055 12.3242C55.1055 12.3711 55.1328 12.4141 55.1875 12.4531C55.2422 12.4922 55.3008 12.5117 55.3633 12.5117C55.4336 12.5117 55.4805 12.4844 55.5039 12.4297C55.8164 11.1875 56.1289 10.1484 56.4414 9.3125C56.7539 8.47656 57.2266 7.73438 57.8594 7.08594C58.4922 6.4375 59.3125 6.11328 60.3203 6.11328C61.5703 6.11328 62.4688 6.49609 63.0156 7.26172C63.5625 8.01953 63.8359 8.97656 63.8359 10.1328C63.8359 11.1641 63.7148 12.1602 63.4727 13.1211C63.2305 14.0742 62.9297 15.0703 62.5703 16.1094C62.5859 16.0703 62.5312 16.2227 62.4062 16.5664L62.4297 16.5898L64.1641 15.8633C64.7734 16.3867 65.1289 17.082 65.2305 17.9492C65.2305 18.0039 65.0547 18.2305 64.7031 18.6289C64.3516 19.0195 63.8867 19.3867 63.3086 19.7305C62.7383 20.0664 62.082 20.2344 61.3398 20.2344C60.5977 20.2344 59.9922 20.0352 59.5234 19.6367C59.0547 19.2383 58.8203 18.5586 58.8203 17.5977C58.8203 16.832 58.8516 15.8086 58.9141 14.5273C58.9766 13.2461 59.0391 12.2148 59.1016 11.4336C58.8984 11.2148 58.6484 11.0977 58.3516 11.082C58.0781 11.4336 57.6758 12.1367 57.1445 13.1914C56.6133 14.2461 56.2383 15.0352 56.0195 15.5586C56.0039 15.668 55.9961 15.7734 55.9961 15.875C55.9961 16.2656 56.0547 16.793 56.1719 17.457C56.2891 18.1133 56.4336 18.7266 56.6055 19.2969C56.4648 19.5625 56.1758 19.7852 55.7383 19.9648C55.3008 20.1445 54.7617 20.2344 54.1211 20.2344C53.543 20.2344 53.0781 20.1875 52.7266 20.0938C52.3828 20 52.1406 19.9023 52 19.8008C51.8594 19.6914 51.7891 19.625 51.7891 19.6016C51.7812 19.5312 51.7617 19.3477 51.7305 19.0508C51.6992 18.7461 51.668 18.3242 51.6367 17.7852C51.6055 17.2383 51.5898 16.6172 51.5898 15.9219L51.5781 12.3828ZM67.0586 13.5312C67.0586 12.2578 67.0781 11.0977 67.1172 10.0508L65.8398 9.82812C65.7383 9.4375 65.668 9.09375 65.6289 8.79688C65.5898 8.5 65.5703 8.18359 65.5703 7.84766L65.5938 7.61328C65.6172 7.50391 65.6289 7.41406 65.6289 7.34375L67.3281 6.96875C67.3672 6.48438 67.457 5.9375 67.5977 5.32812C67.7383 4.71875 67.8867 4.26953 68.043 3.98047C68.293 3.79297 68.5938 3.65234 68.9453 3.55859C69.2969 3.46484 69.6758 3.41797 70.082 3.41797C70.4258 3.41797 70.7578 3.45312 71.0781 3.52344C71.4062 3.58594 71.6914 3.67188 71.9336 3.78125C71.957 4.04688 71.9688 4.35156 71.9688 4.69531C71.9688 5.25781 71.9414 5.89453 71.8867 6.60547L73.9492 6.23047C74.2383 6.73047 74.3828 7.27344 74.3828 7.85938C74.3828 8.26562 74.332 8.63281 74.2305 8.96094C74.1367 9.28906 74.0039 9.66016 73.832 10.0742C73.3164 10.1602 72.6094 10.2148 71.7109 10.2383C71.6016 11.5117 71.3594 13.3828 70.9844 15.8516L70.9258 16.25L70.9492 16.2734L73.7031 15.418C74.2734 15.8945 74.6211 16.6289 74.7461 17.6211C74.7461 17.6758 74.4922 17.9336 73.9844 18.3945C73.4844 18.8477 72.8555 19.2695 72.0977 19.6602C71.3398 20.043 70.5156 20.2344 69.625 20.2344C68.0703 20.2344 67.2422 19.2852 67.1406 17.3867C67.0859 16.4258 67.0586 15.1406 67.0586 13.5312Z" fill="#FF008F"/>
<path d="M80.7695 16.2383C81.2461 16.3945 81.6797 16.5195 82.0703 16.6133C82.8281 13.5664 83.6914 9.96875 84.6602 5.82031L81.8359 5.51562C81.6562 5.02344 81.5664 4.46484 81.5664 3.83984C81.5664 3.36328 81.6211 2.89844 81.7305 2.44531C82.8633 2.22656 84.168 2.07031 85.6445 1.97656C87.1289 1.875 88.4023 1.82422 89.4648 1.82422C90.2305 1.82422 90.8047 1.82812 91.1875 1.83594L91.9258 2.25781C93.2383 5.85938 94.5703 10.7305 95.9219 16.8711C95.9375 16.9336 95.9648 17.0586 96.0039 17.2461C96.0508 17.4336 96.0859 17.6133 96.1094 17.7852C96.1328 17.9492 96.1445 18.1055 96.1445 18.2539C96.1445 18.9102 95.9102 19.4414 95.4414 19.8477C94.7852 20.1055 93.9922 20.2344 93.0625 20.2344C92.625 20.2344 92.1836 20.1875 91.7383 20.0938C91.293 20 90.9922 19.8555 90.8359 19.6602L90.9766 16.6367L90.6836 15.0664C90.1758 15.0977 89.5781 15.1133 88.8906 15.1133C88.1562 15.1133 87.4688 15.0898 86.8281 15.043L86.6875 15.6758C86.3828 17.0352 86.1328 18 85.9375 18.5703C85.75 19.1406 85.4688 19.5625 85.0938 19.8359C84.7266 20.1094 84.1758 20.2461 83.4414 20.2461C82.9648 20.2461 82.4844 20.1836 82 20.0586C81.5156 19.9414 81.0781 19.7812 80.6875 19.5781C80.2969 19.375 80.0039 19.1562 79.8086 18.9219C79.8086 18.3594 79.8945 17.8242 80.0664 17.3164C80.2383 16.8086 80.4727 16.4492 80.7695 16.2383ZM88.9844 5.92578H88.4453L87.6016 11.7031H90.2266L88.9844 5.92578ZM97.2461 13.1914C97.2461 11.8398 97.4727 10.6328 97.9258 9.57031C98.3789 8.50781 99.0781 7.66797 100.023 7.05078C100.977 6.42578 102.164 6.11328 103.586 6.11328C104.07 6.11328 104.625 6.14453 105.25 6.20703C105.883 6.26172 106.488 6.34766 107.066 6.46484L107.301 6.62891C107.652 6.87109 107.91 7.06641 108.074 7.21484C108.246 7.35547 108.426 7.55469 108.613 7.8125C108.613 8.23438 108.555 8.81641 108.438 9.55859C108.328 10.293 108.188 10.9766 108.016 11.6094C107.844 12.2422 107.68 12.6484 107.523 12.8281C107.266 12.9609 106.848 13.0273 106.27 13.0273C105.988 13.0273 105.723 13.0078 105.473 12.9688C105.23 12.9219 105.047 12.8633 104.922 12.793L104.676 10.625C104.559 10.4922 104.289 10.3867 103.867 10.3086C103.453 10.2227 103.07 10.1797 102.719 10.1797C102.609 10.1797 102.508 10.1875 102.414 10.2031C102.234 10.5703 102.098 11.0391 102.004 11.6094C101.91 12.1797 101.863 12.7617 101.863 13.3555C101.863 14.2148 102.004 14.9453 102.285 15.5469C102.566 16.1406 103.141 16.4375 104.008 16.4375C104.438 16.4375 104.859 16.3672 105.273 16.2266C105.695 16.0859 106.227 15.8711 106.867 15.582C107.133 15.457 107.332 15.3672 107.465 15.3125C107.777 15.625 108.023 15.9531 108.203 16.2969C108.383 16.6406 108.5 17.082 108.555 17.6211C108.055 18.207 107.352 18.7891 106.445 19.3672C105.547 19.9453 104.496 20.2344 103.293 20.2344C102.012 20.2344 100.914 19.9258 100 19.3086C99.0938 18.6836 98.4062 17.8398 97.9375 16.7773C97.4766 15.707 97.2461 14.5117 97.2461 13.1914ZM113.793 12.2773C114.254 12.2773 114.762 12.3242 115.316 12.418C115.879 12.5117 116.395 12.625 116.863 12.7578V12.3945C116.863 12.1523 116.855 11.8828 116.84 11.5859C116.832 11.2891 116.816 11.0938 116.793 11C116.723 10.8672 116.52 10.7305 116.184 10.5898C115.855 10.4492 115.316 10.3789 114.566 10.3789C114.105 10.3789 113.629 10.4375 113.137 10.5547C112.652 10.6641 112.113 10.8125 111.52 11C111.199 10.4688 110.941 9.96484 110.746 9.48828C110.559 9.00391 110.465 8.51953 110.465 8.03516C110.465 7.88672 110.477 7.73828 110.5 7.58984C111.766 6.60547 113.402 6.11328 115.41 6.11328C116.52 6.11328 117.504 6.23828 118.363 6.48828C119.223 6.73828 119.93 7.22266 120.484 7.94141C121.039 8.66016 121.316 9.67969 121.316 11C121.316 12.2891 121.164 13.5391 120.859 14.75C120.562 15.9531 120.41 16.5664 120.402 16.5898L122.102 15.8633C122.328 16.1055 122.527 16.4023 122.699 16.7539C122.879 17.0977 122.992 17.4961 123.039 17.9492C122.93 18.1836 122.691 18.4844 122.324 18.8516C121.957 19.2109 121.508 19.5312 120.977 19.8125C120.445 20.0938 119.891 20.2344 119.312 20.2344C118.664 20.2344 118.172 20.043 117.836 19.6602C117.508 19.2773 117.344 18.7812 117.344 18.1719C117.344 17.8281 117.395 17.4805 117.496 17.1289L117.145 17.0234C116.926 18.2578 116.461 19.1016 115.75 19.5547C115.039 20.0078 114.254 20.2344 113.395 20.2344C112.832 20.2344 112.289 20.0781 111.766 19.7656C111.242 19.4453 110.816 18.9844 110.488 18.3828C110.16 17.7734 109.996 17.0625 109.996 16.25C109.996 14.9531 110.32 13.9688 110.969 13.2969C111.617 12.6172 112.559 12.2773 113.793 12.2773ZM115.129 16.7422C115.324 16.7031 115.555 16.5938 115.82 16.4141C116.094 16.2344 116.336 16.0195 116.547 15.7695C116.758 15.5195 116.883 15.2812 116.922 15.0547L116.852 14.7734C116.438 14.7188 115.996 14.6914 115.527 14.6914C115.129 14.6914 114.855 14.7227 114.707 14.7852C114.457 15.0664 114.332 15.3789 114.332 15.7227C114.332 15.9727 114.395 16.1992 114.52 16.4023C114.652 16.6055 114.855 16.7188 115.129 16.7422ZM123.672 13.2383C123.672 12.0508 123.836 10.9141 124.164 9.82812C124.5 8.74219 125.023 7.85156 125.734 7.15625C126.453 6.46094 127.355 6.11328 128.441 6.11328C129.66 6.11328 130.824 6.5 131.934 7.27344L132.121 7.15625C132.098 6.24219 131.984 5.41406 131.781 4.67188L129.402 4.51953C129.293 4.37891 129.207 4.17188 129.145 3.89844C129.082 3.61719 129.051 3.32812 129.051 3.03125C129.051 2.63281 129.098 2.28906 129.191 2C129.66 1.66406 130.262 1.41016 130.996 1.23828C131.73 1.06641 132.465 0.980469 133.199 0.980469C134.012 0.980469 134.625 1.15234 135.039 1.49609C135.453 1.83203 135.73 2.34375 135.871 3.03125C136.02 3.71094 136.094 4.65625 136.094 5.86719C136.094 7.46094 136.027 9.26953 135.895 11.293C135.762 13.3164 135.59 14.9688 135.379 16.25L135.332 16.4492L136.691 15.8633C136.918 16.1055 137.117 16.4023 137.289 16.7539C137.469 17.0977 137.582 17.4961 137.629 17.9492C137.52 18.1836 137.281 18.4844 136.914 18.8516C136.547 19.2109 136.098 19.5312 135.566 19.8125C135.035 20.0938 134.48 20.2344 133.902 20.2344C133.254 20.2344 132.754 20.043 132.402 19.6602C132.059 19.2695 131.887 18.7734 131.887 18.1719C131.887 18.0156 131.926 17.6953 132.004 17.2109C132.09 16.7266 132.16 16.3906 132.215 16.2031L131.863 16.0977C131.465 17.4961 130.938 18.5352 130.281 19.2148C129.625 19.8945 128.812 20.2344 127.844 20.2344C126.805 20.2344 125.973 19.8906 125.348 19.2031C124.73 18.5078 124.297 17.6367 124.047 16.5898C123.797 15.543 123.672 14.4258 123.672 13.2383ZM131.711 13.0273C131.758 12.7461 131.781 12.418 131.781 12.043C131.781 11.8008 131.77 11.5703 131.746 11.3516C131.73 11.1328 131.711 10.9766 131.688 10.8828C131.375 10.6562 131.02 10.4961 130.621 10.4023C130.23 10.3086 129.871 10.2617 129.543 10.2617C129.34 10.2617 129.121 10.2812 128.887 10.3203C128.73 10.4766 128.605 10.8164 128.512 11.3398C128.418 11.8555 128.371 12.4375 128.371 13.0859C128.371 13.7812 128.418 14.457 128.512 15.1133C128.613 15.7617 128.754 16.2695 128.934 16.6367C129.059 16.6367 129.301 16.4453 129.66 16.0625C130.027 15.6719 130.406 15.1953 130.797 14.6328C131.188 14.0625 131.492 13.5273 131.711 13.0273Z" fill="#FFDD00"/>
<path d="M138.426 13.1914C138.426 11.8398 138.652 10.6328 139.105 9.57031C139.559 8.50781 140.258 7.66797 141.203 7.05078C142.156 6.42578 143.344 6.11328 144.766 6.11328C145.508 6.11328 146.25 6.20312 146.992 6.38281C147.734 6.55469 148.363 6.84375 148.879 7.25C149.355 7.63281 149.699 8.14062 149.91 8.77344C150.129 9.39844 150.238 10.0938 150.238 10.8594C150.238 11.3672 150.195 11.8867 150.109 12.418C150.016 12.5742 149.832 12.7812 149.559 13.0391C149.285 13.2891 148.965 13.5352 148.598 13.7773C148.23 14.0195 147.875 14.207 147.531 14.3398C147.203 14.3633 146.863 14.375 146.512 14.375C145.895 14.375 145.27 14.3477 144.637 14.293C144.004 14.2383 143.449 14.1758 142.973 14.1055C143.035 14.7695 143.238 15.3477 143.582 15.8398C143.926 16.332 144.473 16.5781 145.223 16.5781C145.293 16.5781 145.406 16.5703 145.562 16.5547C146.039 16.5078 146.594 16.3828 147.227 16.1797C147.867 15.9688 148.504 15.7266 149.137 15.4531C149.434 15.75 149.652 16.0469 149.793 16.3438C149.934 16.6406 150.031 17.0664 150.086 17.6211C149.844 17.9023 149.449 18.2461 148.902 18.6523C148.363 19.0586 147.703 19.4258 146.922 19.7539C146.141 20.0742 145.324 20.2344 144.473 20.2344C143.191 20.2344 142.094 19.9258 141.18 19.3086C140.273 18.6836 139.586 17.8398 139.117 16.7773C138.656 15.707 138.426 14.5117 138.426 13.1914ZM145.973 10.4961C145.863 10.3789 145.68 10.2891 145.422 10.2266C145.164 10.1562 144.895 10.1211 144.613 10.1211C144.387 10.1211 144.156 10.1406 143.922 10.1797C143.695 10.2188 143.559 10.2617 143.512 10.3086C143.246 10.832 143.078 11.4258 143.008 12.0898L146.137 11.7852L145.973 10.4961ZM152.898 15.9219C152.898 14.6484 152.914 13.6875 152.945 13.0391C152.977 12.3828 153.059 11.4219 153.191 10.1562L151.844 9.98047C151.68 9.47266 151.57 9.01953 151.516 8.62109C151.469 8.22266 151.445 7.70703 151.445 7.07422C151.57 6.96484 151.777 6.83594 152.066 6.6875C152.363 6.53125 152.711 6.39844 153.109 6.28906C153.516 6.17188 153.926 6.11328 154.34 6.11328C155.285 6.11328 155.953 6.31641 156.344 6.72266C156.742 7.12891 156.941 7.73828 156.941 8.55078C156.941 9.00391 156.875 9.61719 156.742 10.3906C156.523 11.6328 156.414 12.2852 156.414 12.3477C156.414 12.3867 156.441 12.4258 156.496 12.4648C156.551 12.4961 156.609 12.5117 156.672 12.5117C156.742 12.5117 156.789 12.4844 156.812 12.4297C156.805 12.4609 156.895 12.0664 157.082 11.2461C157.309 10.168 157.539 9.28906 157.773 8.60938C158.016 7.92969 158.398 7.34766 158.922 6.86328C159.445 6.37891 160.156 6.13672 161.055 6.13672C162.164 6.13672 162.965 6.45703 163.457 7.09766C163.949 7.73047 164.195 8.57422 164.195 9.62891C164.195 10.4648 164.055 11.3945 163.773 12.418C163.773 12.457 163.801 12.4961 163.855 12.5352C163.91 12.5664 163.969 12.582 164.031 12.582C164.102 12.582 164.148 12.5547 164.172 12.5L164.336 11.8438C164.617 10.6875 164.895 9.72656 165.168 8.96094C165.449 8.19531 165.867 7.53516 166.422 6.98047C166.984 6.41797 167.715 6.13672 168.613 6.13672C169.793 6.13672 170.641 6.51562 171.156 7.27344C171.68 8.03125 171.941 8.98438 171.941 10.1328C171.941 10.9453 171.863 11.7617 171.707 12.582C171.559 13.4023 171.398 14.0898 171.227 14.6445C171.062 15.1992 170.859 15.8398 170.617 16.5664L170.641 16.5898L172.375 15.8633C172.984 16.3867 173.34 17.082 173.441 17.9492C173.441 18.0039 173.266 18.2305 172.914 18.6289C172.562 19.0195 172.098 19.3867 171.52 19.7305C170.949 20.0664 170.293 20.2344 169.551 20.2344C168.809 20.2344 168.203 20.0352 167.734 19.6367C167.266 19.2383 167.031 18.5586 167.031 17.5977C167.031 16.5273 167.051 15.4297 167.09 14.3047C167.137 13.1719 167.203 12.1562 167.289 11.2578C167.156 11.1484 166.973 11.0898 166.738 11.082C166.504 11.3086 166.211 11.8047 165.859 12.5703C165.508 13.3281 165.184 14.1406 164.887 15.0078C164.59 15.8672 164.402 16.5391 164.324 17.0234C164.434 17.7891 164.602 18.5469 164.828 19.2969C164.688 19.5625 164.398 19.7852 163.961 19.9648C163.523 20.1445 162.984 20.2344 162.344 20.2344C161.766 20.2344 161.312 20.1875 160.984 20.0938C160.656 20 160.43 19.9023 160.305 19.8008C160.188 19.6992 160.129 19.6328 160.129 19.6016C160.121 19.5312 160.102 19.3477 160.07 19.0508C160.039 18.7461 160.008 18.3242 159.977 17.7852C159.945 17.2383 159.93 16.6172 159.93 15.9219C159.93 15.2578 159.98 14.4258 160.082 13.4258C160.09 13.3008 160.113 13.0039 160.152 12.5352C160.191 12.0664 160.211 11.6406 160.211 11.2578C160.078 11.1484 159.895 11.0898 159.66 11.082C159.527 11.1836 159.156 11.832 158.547 13.0273C157.938 14.2227 157.531 15.0664 157.328 15.5586C157.312 15.668 157.305 15.7734 157.305 15.875C157.305 16.2656 157.363 16.793 157.48 17.457C157.598 18.1133 157.742 18.7266 157.914 19.2969C157.773 19.5625 157.484 19.7852 157.047 19.9648C156.609 20.1445 156.07 20.2344 155.43 20.2344C154.852 20.2344 154.387 20.1875 154.035 20.0938C153.691 20 153.449 19.9023 153.309 19.8008C153.168 19.6914 153.098 19.625 153.098 19.6016C153.09 19.5312 153.07 19.3477 153.039 19.0508C153.008 18.7461 152.977 18.3242 152.945 17.7852C152.914 17.2383 152.898 16.6172 152.898 15.9219ZM178.352 18.5352C178.203 17.957 177.926 17.1211 177.52 16.0273C177.113 14.9258 176.688 13.8672 176.242 12.8516C175.797 11.8359 175.445 11.1367 175.188 10.7539L174.109 10.5664C174 10.2617 173.914 9.92578 173.852 9.55859C173.797 9.18359 173.75 8.75 173.711 8.25781C173.844 7.89062 174.047 7.54297 174.32 7.21484C174.594 6.88672 174.922 6.62109 175.305 6.41797C175.695 6.21484 176.117 6.11328 176.57 6.11328C177.312 6.11328 177.926 6.32422 178.41 6.74609C178.902 7.16016 179.281 7.68359 179.547 8.31641C179.82 8.94141 180.059 9.67969 180.262 10.5312C180.676 12.1797 180.941 14.2227 181.059 16.6602L181.316 16.6133C181.621 15.9336 181.879 14.9609 182.09 13.6953C182.309 12.4297 182.426 11.2148 182.441 10.0508L180.977 9.82812C180.805 9.17188 180.719 8.40234 180.719 7.51953C180.891 7.30859 181.137 7.09766 181.457 6.88672C181.785 6.66797 182.172 6.48438 182.617 6.33594C183.062 6.1875 183.535 6.11328 184.035 6.11328C186.051 6.11328 187.059 7.125 187.059 9.14844C187.059 10.7422 186.77 12.2891 186.191 13.7891C185.621 15.2891 184.762 16.6445 183.613 17.8555C182.465 19.0664 181.066 20.0195 179.418 20.7148L179.512 21.1016C179.723 21.125 179.93 21.1367 180.133 21.1367C180.797 21.1367 181.598 21.0273 182.535 20.8086C183.066 21.4023 183.332 22.0508 183.332 22.7539C183.332 22.9648 183.309 23.1797 183.262 23.3984C182.793 23.8516 182.207 24.2422 181.504 24.5703C180.801 24.8984 180.027 25.0625 179.184 25.0625C177.957 25.0625 176.965 24.7852 176.207 24.2305C175.449 23.6758 175.07 22.832 175.07 21.6992C175.07 21.1914 175.223 20.7461 175.527 20.3633C175.84 19.9883 176.199 19.6836 176.605 19.4492C177.02 19.207 177.602 18.9023 178.352 18.5352Z" fill="#00DDEA"/>
</svg>
